<svg xmlns="http://www.w3.org/2000/svg" width="1080" height="1080" viewBox="0 0 1080 1080" version="1.1"><path d="M 543.450 81.208 C 526.591 99.599, 488.863 140.258, 481.473 148 C 476.486 153.225, 466.352 164.036, 458.953 172.024 C 451.554 180.012, 440.496 191.937, 434.379 198.524 C 417.008 217.231, 399.617 238.803, 385.764 258.825 L 383.029 262.780 371.764 263.446 C 350.122 264.727, 321.307 268.853, 273.500 277.515 C 265.800 278.911, 251.850 281.363, 242.500 282.966 C 233.150 284.568, 222.125 286.547, 218 287.364 C 213.875 288.181, 202.625 290.243, 193 291.947 C 146.432 300.193, 140 301.510, 140 302.801 C 140 303.518, 147.386 324.668, 156.414 349.802 C 165.441 374.936, 174.716 400.900, 177.024 407.500 C 179.333 414.100, 184.053 427.375, 187.514 437 C 190.974 446.625, 195.702 459.900, 198.019 466.500 C 206.656 491.093, 216.735 515.589, 225.156 532.448 L 231.124 544.396 224.102 559.448 C 212.602 584.099, 209.522 592.072, 191.052 645 C 186.542 657.925, 181.517 672.100, 179.886 676.500 C 178.256 680.900, 175.190 689.675, 173.074 696 C 168.333 710.168, 153.706 750.586, 146.414 769.665 C 141.223 783.246, 140.396 786, 141.503 786 C 143.120 786, 242.802 803.235, 257 805.969 C 279.338 810.271, 333.171 818.956, 346.707 820.441 C 354.521 821.298, 365.572 822, 371.266 822 C 378.063 822, 382.144 822.429, 383.151 823.250 C 383.995 823.938, 387.692 828.873, 391.368 834.217 C 398.353 844.372, 411.717 861.221, 422.923 874 C 432.485 884.904, 457.359 912.523, 463.901 919.500 C 466.996 922.800, 474.195 930.675, 479.901 937 C 485.606 943.325, 494.410 953, 499.464 958.500 C 504.519 964, 514.665 975.250, 522.011 983.500 C 529.357 991.750, 537.990 1001.383, 541.196 1004.907 L 547.023 1011.315 552.359 1005.407 C 555.293 1002.158, 563.188 993.237, 569.902 985.582 C 576.617 977.927, 586.273 967.127, 591.361 961.582 C 596.448 956.037, 608.041 943.400, 617.123 933.500 C 660.601 886.104, 678.861 865.632, 687.500 854.591 C 689.150 852.483, 691.733 849.350, 693.240 847.629 C 694.747 845.908, 699.221 839.775, 703.182 834 C 707.143 828.225, 710.860 823.169, 711.442 822.765 C 712.024 822.361, 716.325 822.019, 721 822.005 C 734.090 821.965, 763.210 818.565, 785 814.532 C 789.675 813.667, 802.725 811.377, 814 809.443 C 832.533 806.264, 848.165 803.578, 889 796.556 C 896.425 795.279, 913.750 792.311, 927.500 789.961 C 941.250 787.611, 952.637 785.583, 952.805 785.455 C 952.973 785.327, 951.762 781.685, 950.113 777.361 C 941.980 756.031, 916.034 683.726, 899.028 635 C 885.898 597.379, 878 577.291, 868.303 556.854 L 862.777 545.209 871.809 526.854 C 885.217 499.607, 895.733 471.838, 922.498 393 C 925.952 382.825, 934.454 358.391, 941.389 338.702 C 948.325 319.013, 954 302.547, 954 302.111 C 954 301.150, 948.689 299.975, 926.500 296.027 C 917.150 294.364, 899.375 291.182, 887 288.957 C 874.625 286.732, 856.850 283.587, 847.500 281.969 C 838.150 280.350, 825.325 278.091, 819 276.948 C 766.260 267.417, 746.164 264.616, 722 263.431 L 709.500 262.818 706 257.664 C 694.786 241.149, 674.583 216.295, 655.500 195.540 C 631.598 169.543, 592.277 126.406, 582.500 115.457 C 577 109.298, 568 99.372, 562.500 93.399 C 557 87.427, 551.352 81.271, 549.950 79.720 L 547.400 76.899 543.450 81.208 M 537.347 177.707 C 532.481 183.046, 514.377 202.733, 497.116 221.457 C 461.727 259.844, 454.544 267.878, 455.107 268.439 C 455.323 268.655, 459.325 269.807, 464 271 C 488.657 277.292, 516.683 288.267, 537.888 299.935 C 541.952 302.171, 545.897 304, 546.655 304 C 547.413 304, 553.030 301.494, 559.137 298.432 C 571.931 292.015, 588.436 285.116, 600.864 280.990 C 612.971 276.971, 631.881 271.285, 635.750 270.500 C 641.414 269.352, 642.971 271.404, 608.047 234 C 578.316 202.157, 559.576 181.805, 552.534 173.709 C 549.803 170.569, 547.259 168, 546.881 168 C 546.504 168, 542.213 172.368, 537.347 177.707 M 350.500 325.231 C 345.579 326.357, 328.579 329.529, 316.500 331.576 C 311.550 332.415, 298.950 334.650, 288.500 336.544 C 278.050 338.437, 262.975 341.147, 255 342.564 C 225.927 347.732, 222 348.656, 222 350.327 C 222 350.983, 224.943 359.615, 228.540 369.510 C 237.027 392.855, 243.112 409.619, 248.503 424.500 C 262.840 464.074, 271.217 486.591, 271.844 487.229 C 272.237 487.630, 274.403 485.605, 276.658 482.729 C 287.963 468.306, 314.003 442.536, 332.250 427.713 L 341 420.605 341.003 415.553 C 341.014 398.645, 346.405 361.903, 352.350 338.212 C 354.184 330.903, 355.418 324.787, 355.092 324.620 C 354.767 324.453, 352.700 324.728, 350.500 325.231 M 417.801 335.154 C 411.499 354.493, 406.416 377, 408.350 377 C 408.670 377, 413.334 374.564, 418.716 371.587 C 441.283 359.101, 452.396 353.168, 463.827 347.500 C 470.483 344.200, 475.945 340.985, 475.964 340.356 C 476.046 337.733, 440.341 326.308, 426.196 324.432 L 421.498 323.808 417.801 335.154 M 658 326.565 C 647.375 329.018, 629.689 334.423, 622.673 337.360 C 620.171 338.408, 618.959 339.507, 619.173 340.537 C 619.354 341.408, 626.421 345.712, 635 350.175 C 643.525 354.609, 658.494 362.684, 668.265 368.119 C 678.035 373.554, 686.248 378, 686.515 378 C 688.335 378, 682.549 353.315, 676.388 334.796 C 672.223 322.277, 673.701 322.938, 658 326.565 M 737.592 324.851 C 737.301 325.322, 738.343 330.612, 739.908 336.604 C 746.391 361.429, 750.253 383.930, 751.977 406.926 C 752.955 419.983, 753.266 421.498, 755.248 422.886 C 769.841 433.107, 796.186 457.746, 815.741 479.462 C 819.684 483.840, 823.166 487.167, 823.479 486.854 C 824.123 486.210, 830 470.139, 843.171 433 C 848.145 418.975, 854.618 400.750, 857.554 392.500 C 860.491 384.250, 864.942 371.724, 867.447 364.665 C 869.951 357.605, 872 351.025, 872 350.043 C 872 348.757, 870.948 348.078, 868.250 347.623 C 862.534 346.659, 851.315 344.627, 818.500 338.613 C 802 335.588, 784.450 332.444, 779.500 331.624 C 770.071 330.064, 744.073 325.327, 740.311 324.483 C 739.107 324.213, 737.884 324.379, 737.592 324.851 M 542.473 374.339 C 541.388 375.075, 535.550 378.289, 529.500 381.481 C 523.450 384.673, 516.250 388.506, 513.500 389.998 C 510.750 391.489, 502.650 395.768, 495.500 399.506 C 483.808 405.618, 455.841 420.516, 433 432.800 C 428.325 435.314, 422.475 438.532, 420 439.951 C 417.525 441.371, 413.851 443.394, 411.835 444.448 C 409.819 445.501, 407.344 447.069, 406.335 447.932 C 404.576 449.435, 404.511 453.360, 404.775 543.156 L 405.050 636.811 416.775 643.288 C 423.224 646.850, 431.200 651.224, 434.500 653.008 C 437.800 654.792, 445.900 659.171, 452.500 662.740 C 459.100 666.310, 468.775 671.496, 474 674.264 C 479.225 677.033, 497.331 686.657, 514.236 695.649 C 531.141 704.642, 545.620 712, 546.411 712 C 547.688 712, 564.138 703.658, 606.500 681.527 C 613.650 677.792, 621.300 673.733, 623.500 672.508 C 625.700 671.283, 632.450 667.666, 638.500 664.471 C 659.437 653.411, 674.533 645.300, 682.250 640.965 L 690 636.610 690 542.900 L 690 449.190 685.750 446.705 C 680.098 443.399, 649.748 427.023, 633.500 418.511 C 626.350 414.766, 615.775 409.134, 610 405.997 C 604.225 402.860, 591.850 396.325, 582.500 391.476 C 573.150 386.626, 561.495 380.485, 556.600 377.829 C 547.045 372.645, 545.523 372.269, 542.473 374.339 M 336.897 506.750 C 327.125 516.891, 310.141 537.205, 305.610 544.172 L 303.872 546.844 314.673 559.172 C 329.703 576.327, 341.027 588, 342.638 588 C 343.767 588, 344 580.544, 344 544.500 C 344 520.575, 343.648 501, 343.219 501 C 342.789 501, 339.944 503.587, 336.897 506.750 M 750 544 C 750 593.840, 749.298 591.310, 760.190 580.750 C 766.799 574.342, 782.081 557.474, 787.668 550.419 L 790.800 546.465 783.286 536.983 C 770.708 521.108, 752.544 501, 750.781 501 C 750.352 501, 750 520.350, 750 544 M 266.308 618.250 C 263.470 626.087, 256.342 646, 250.467 662.500 C 244.592 679, 236.180 702.533, 231.772 714.796 C 227.365 727.059, 224.030 737.363, 224.360 737.694 C 224.691 738.024, 229.583 739.099, 235.231 740.082 C 244.425 741.683, 255.139 743.620, 290 749.986 C 319.064 755.293, 333.451 757.889, 347.286 760.323 C 351.568 761.076, 355.235 761.424, 355.433 761.096 C 355.632 760.768, 354.255 754.425, 352.374 747 C 346.082 722.168, 341 688.946, 341 672.650 L 341 665.490 330.466 657.640 C 315.922 646.801, 294.360 627.292, 283 614.693 C 277.775 608.899, 273.042 604.122, 272.483 604.079 C 271.924 604.035, 269.145 610.413, 266.308 618.250 M 804 621.960 C 786.990 639.204, 774.628 650.157, 760.939 660.114 C 753.673 665.398, 753.047 666.769, 753 677.500 C 752.928 694.117, 747.725 726.316, 740.907 752.343 C 739.776 756.656, 739.123 760.456, 739.454 760.787 C 740.066 761.400, 750.177 759.853, 773.500 755.580 C 780.650 754.270, 801.800 750.463, 820.500 747.120 C 862.160 739.673, 868.442 738.463, 869.795 737.627 C 871.019 736.870, 869.298 731.624, 853.024 686.500 C 846.874 669.450, 838.704 646.500, 834.866 635.500 C 824.210 604.952, 823.836 603.992, 822.628 604.110 C 822.008 604.170, 813.625 612.203, 804 621.960 M 408.009 711.250 C 408.025 715.272, 412.887 735.180, 417.181 748.806 L 421.373 762.113 425.437 761.444 C 438.419 759.308, 476.004 747.492, 475.996 745.548 C 475.994 744.972, 470.031 741.481, 462.746 737.792 C 455.461 734.103, 440.555 726.115, 429.621 720.042 C 418.688 713.969, 409.350 709, 408.871 709 C 408.392 709, 408.004 710.013, 408.009 711.250 M 683.450 709.887 C 682.928 710.375, 678 713.167, 672.500 716.092 C 667 719.018, 658.900 723.338, 654.500 725.694 C 650.100 728.050, 640.087 733.204, 632.250 737.147 C 624.413 741.090, 618 744.865, 618 745.536 C 618 746.207, 619.688 747.222, 621.750 747.791 C 623.813 748.360, 629.970 750.463, 635.433 752.464 C 646.518 756.524, 661.395 760.585, 668.754 761.562 L 673.603 762.205 676.790 752.852 C 680.273 742.633, 685.606 721.450, 686.619 713.816 C 687.124 710.010, 686.958 709, 685.829 709 C 685.043 709, 683.972 709.399, 683.450 709.887 M 543.465 781.641 C 530.093 788.752, 512.756 796.943, 503.552 800.500 C 492.221 804.879, 466.646 813.119, 459.500 814.694 C 456.889 815.269, 455.500 816.125, 455.500 817.158 C 455.500 818.974, 545.317 919.500, 546.939 919.500 C 547.327 919.500, 559.302 906.675, 573.552 891 C 587.801 875.325, 605.319 856.173, 612.480 848.440 C 633.600 825.634, 639.210 819.131, 638.808 817.923 C 638.598 817.295, 632.594 815.107, 625.464 813.059 C 601.890 806.289, 576.021 795.853, 554.965 784.619 C 546.640 780.177, 546.356 780.104, 543.465 781.641" stroke="none" fill="#04f6a8" fill-rule="evenodd"/><path d="M 493.500 2.518 C 392.211 11.791, 297.742 47.782, 217.500 107.669 C 195.954 123.750, 180.858 136.949, 158.904 158.904 C 136.622 181.185, 123.679 196.029, 106.937 218.500 C 53.453 290.288, 17.622 378.065, 5.498 467 C 0.833 501.224, -0.477 552.698, 2.470 586 C 12.454 698.815, 54.178 800.029, 126.965 888 C 140.273 904.085, 176.915 940.727, 193 954.035 C 281.901 1027.591, 386.763 1070.271, 499.950 1078.967 C 517.272 1080.297, 563.728 1080.297, 581.050 1078.967 C 694.237 1070.271, 799.099 1027.591, 888 954.035 C 904.085 940.727, 940.727 904.085, 954.035 888 C 1027.567 799.128, 1070.274 694.200, 1078.967 581.050 C 1080.297 563.728, 1080.297 517.272, 1078.967 499.950 C 1071.137 398.030, 1034.414 299.504, 974.063 218.500 C 957.321 196.029, 944.378 181.185, 922.096 158.904 C 877.104 113.911, 832.935 82.354, 776.555 54.921 C 716.576 25.736, 653.875 8.477, 586 2.470 C 565.665 0.671, 513.387 0.698, 493.500 2.518 M 543.450 81.208 C 526.591 99.599, 488.863 140.258, 481.473 148 C 476.486 153.225, 466.352 164.036, 458.953 172.024 C 451.554 180.012, 440.496 191.937, 434.379 198.524 C 417.008 217.231, 399.617 238.803, 385.764 258.825 L 383.029 262.780 371.764 263.446 C 350.122 264.727, 321.307 268.853, 273.500 277.515 C 265.800 278.911, 251.850 281.363, 242.500 282.966 C 233.150 284.568, 222.125 286.547, 218 287.364 C 213.875 288.181, 202.625 290.243, 193 291.947 C 146.432 300.193, 140 301.510, 140 302.801 C 140 303.518, 147.386 324.668, 156.414 349.802 C 165.441 374.936, 174.716 400.900, 177.024 407.500 C 179.333 414.100, 184.053 427.375, 187.514 437 C 190.974 446.625, 195.702 459.900, 198.019 466.500 C 206.656 491.093, 216.735 515.589, 225.156 532.448 L 231.124 544.396 224.102 559.448 C 212.602 584.099, 209.522 592.072, 191.052 645 C 186.542 657.925, 181.517 672.100, 179.886 676.500 C 178.256 680.900, 175.190 689.675, 173.074 696 C 168.333 710.168, 153.706 750.586, 146.414 769.665 C 141.223 783.246, 140.396 786, 141.503 786 C 143.120 786, 242.802 803.235, 257 805.969 C 279.338 810.271, 333.171 818.956, 346.707 820.441 C 354.521 821.298, 365.572 822, 371.266 822 C 378.063 822, 382.144 822.429, 383.151 823.250 C 383.995 823.938, 387.692 828.873, 391.368 834.217 C 398.353 844.372, 411.717 861.221, 422.923 874 C 432.485 884.904, 457.359 912.523, 463.901 919.500 C 466.996 922.800, 474.195 930.675, 479.901 937 C 485.606 943.325, 494.410 953, 499.464 958.500 C 504.519 964, 514.665 975.250, 522.011 983.500 C 529.357 991.750, 537.990 1001.383, 541.196 1004.907 L 547.023 1011.315 552.359 1005.407 C 555.293 1002.158, 563.188 993.237, 569.902 985.582 C 576.617 977.927, 586.273 967.127, 591.361 961.582 C 596.448 956.037, 608.041 943.400, 617.123 933.500 C 660.601 886.104, 678.861 865.632, 687.500 854.591 C 689.150 852.483, 691.733 849.350, 693.240 847.629 C 694.747 845.908, 699.221 839.775, 703.182 834 C 707.143 828.225, 710.860 823.169, 711.442 822.765 C 712.024 822.361, 716.325 822.019, 721 822.005 C 734.090 821.965, 763.210 818.565, 785 814.532 C 789.675 813.667, 802.725 811.377, 814 809.443 C 832.533 806.264, 848.165 803.578, 889 796.556 C 896.425 795.279, 913.750 792.311, 927.500 789.961 C 941.250 787.611, 952.637 785.583, 952.805 785.455 C 952.973 785.327, 951.762 781.685, 950.113 777.361 C 941.980 756.031, 916.034 683.726, 899.028 635 C 885.898 597.379, 878 577.291, 868.303 556.854 L 862.777 545.209 871.809 526.854 C 885.217 499.607, 895.733 471.838, 922.498 393 C 925.952 382.825, 934.454 358.391, 941.389 338.702 C 948.325 319.013, 954 302.547, 954 302.111 C 954 301.150, 948.689 299.975, 926.500 296.027 C 917.150 294.364, 899.375 291.182, 887 288.957 C 874.625 286.732, 856.850 283.587, 847.500 281.969 C 838.150 280.350, 825.325 278.091, 819 276.948 C 766.260 267.417, 746.164 264.616, 722 263.431 L 709.500 262.818 706 257.664 C 694.786 241.149, 674.583 216.295, 655.500 195.540 C 631.598 169.543, 592.277 126.406, 582.500 115.457 C 577 109.298, 568 99.372, 562.500 93.399 C 557 87.427, 551.352 81.271, 549.950 79.720 L 547.400 76.899 543.450 81.208 M 537.347 177.707 C 532.481 183.046, 514.377 202.733, 497.116 221.457 C 461.727 259.844, 454.544 267.878, 455.107 268.439 C 455.323 268.655, 459.325 269.807, 464 271 C 488.657 277.292, 516.683 288.267, 537.888 299.935 C 541.952 302.171, 545.897 304, 546.655 304 C 547.413 304, 553.030 301.494, 559.137 298.432 C 571.931 292.015, 588.436 285.116, 600.864 280.990 C 612.971 276.971, 631.881 271.285, 635.750 270.500 C 641.414 269.352, 642.971 271.404, 608.047 234 C 578.316 202.157, 559.576 181.805, 552.534 173.709 C 549.803 170.569, 547.259 168, 546.881 168 C 546.504 168, 542.213 172.368, 537.347 177.707 M 350.500 325.231 C 345.579 326.357, 328.579 329.529, 316.500 331.576 C 311.550 332.415, 298.950 334.650, 288.500 336.544 C 278.050 338.437, 262.975 341.147, 255 342.564 C 225.927 347.732, 222 348.656, 222 350.327 C 222 350.983, 224.943 359.615, 228.540 369.510 C 237.027 392.855, 243.112 409.619, 248.503 424.500 C 262.840 464.074, 271.217 486.591, 271.844 487.229 C 272.237 487.630, 274.403 485.605, 276.658 482.729 C 287.963 468.306, 314.003 442.536, 332.250 427.713 L 341 420.605 341.003 415.553 C 341.014 398.645, 346.405 361.903, 352.350 338.212 C 354.184 330.903, 355.418 324.787, 355.092 324.620 C 354.767 324.453, 352.700 324.728, 350.500 325.231 M 417.801 335.154 C 411.499 354.493, 406.416 377, 408.350 377 C 408.670 377, 413.334 374.564, 418.716 371.587 C 441.283 359.101, 452.396 353.168, 463.827 347.500 C 470.483 344.200, 475.945 340.985, 475.964 340.356 C 476.046 337.733, 440.341 326.308, 426.196 324.432 L 421.498 323.808 417.801 335.154 M 658 326.565 C 647.375 329.018, 629.689 334.423, 622.673 337.360 C 620.171 338.408, 618.959 339.507, 619.173 340.537 C 619.354 341.408, 626.421 345.712, 635 350.175 C 643.525 354.609, 658.494 362.684, 668.265 368.119 C 678.035 373.554, 686.248 378, 686.515 378 C 688.335 378, 682.549 353.315, 676.388 334.796 C 672.223 322.277, 673.701 322.938, 658 326.565 M 737.592 324.851 C 737.301 325.322, 738.343 330.612, 739.908 336.604 C 746.391 361.429, 750.253 383.930, 751.977 406.926 C 752.955 419.983, 753.266 421.498, 755.248 422.886 C 769.841 433.107, 796.186 457.746, 815.741 479.462 C 819.684 483.840, 823.166 487.167, 823.479 486.854 C 824.123 486.210, 830 470.139, 843.171 433 C 848.145 418.975, 854.618 400.750, 857.554 392.500 C 860.491 384.250, 864.942 371.724, 867.447 364.665 C 869.951 357.605, 872 351.025, 872 350.043 C 872 348.757, 870.948 348.078, 868.250 347.623 C 862.534 346.659, 851.315 344.627, 818.500 338.613 C 802 335.588, 784.450 332.444, 779.500 331.624 C 770.071 330.064, 744.073 325.327, 740.311 324.483 C 739.107 324.213, 737.884 324.379, 737.592 324.851 M 542.473 374.339 C 541.388 375.075, 535.550 378.289, 529.500 381.481 C 523.450 384.673, 516.250 388.506, 513.500 389.998 C 510.750 391.489, 502.650 395.768, 495.500 399.506 C 483.808 405.618, 455.841 420.516, 433 432.800 C 428.325 435.314, 422.475 438.532, 420 439.951 C 417.525 441.371, 413.851 443.394, 411.835 444.448 C 409.819 445.501, 407.344 447.069, 406.335 447.932 C 404.576 449.435, 404.511 453.360, 404.775 543.156 L 405.050 636.811 416.775 643.288 C 423.224 646.850, 431.200 651.224, 434.500 653.008 C 437.800 654.792, 445.900 659.171, 452.500 662.740 C 459.100 666.310, 468.775 671.496, 474 674.264 C 479.225 677.033, 497.331 686.657, 514.236 695.649 C 531.141 704.642, 545.620 712, 546.411 712 C 547.688 712, 564.138 703.658, 606.500 681.527 C 613.650 677.792, 621.300 673.733, 623.500 672.508 C 625.700 671.283, 632.450 667.666, 638.500 664.471 C 659.437 653.411, 674.533 645.300, 682.250 640.965 L 690 636.610 690 542.900 L 690 449.190 685.750 446.705 C 680.098 443.399, 649.748 427.023, 633.500 418.511 C 626.350 414.766, 615.775 409.134, 610 405.997 C 604.225 402.860, 591.850 396.325, 582.500 391.476 C 573.150 386.626, 561.495 380.485, 556.600 377.829 C 547.045 372.645, 545.523 372.269, 542.473 374.339 M 336.897 506.750 C 327.125 516.891, 310.141 537.205, 305.610 544.172 L 303.872 546.844 314.673 559.172 C 329.703 576.327, 341.027 588, 342.638 588 C 343.767 588, 344 580.544, 344 544.500 C 344 520.575, 343.648 501, 343.219 501 C 342.789 501, 339.944 503.587, 336.897 506.750 M 750 544 C 750 593.840, 749.298 591.310, 760.190 580.750 C 766.799 574.342, 782.081 557.474, 787.668 550.419 L 790.800 546.465 783.286 536.983 C 770.708 521.108, 752.544 501, 750.781 501 C 750.352 501, 750 520.350, 750 544 M 266.308 618.250 C 263.470 626.087, 256.342 646, 250.467 662.500 C 244.592 679, 236.180 702.533, 231.772 714.796 C 227.365 727.059, 224.030 737.363, 224.360 737.694 C 224.691 738.024, 229.583 739.099, 235.231 740.082 C 244.425 741.683, 255.139 743.620, 290 749.986 C 319.064 755.293, 333.451 757.889, 347.286 760.323 C 351.568 761.076, 355.235 761.424, 355.433 761.096 C 355.632 760.768, 354.255 754.425, 352.374 747 C 346.082 722.168, 341 688.946, 341 672.650 L 341 665.490 330.466 657.640 C 315.922 646.801, 294.360 627.292, 283 614.693 C 277.775 608.899, 273.042 604.122, 272.483 604.079 C 271.924 604.035, 269.145 610.413, 266.308 618.250 M 804 621.960 C 786.990 639.204, 774.628 650.157, 760.939 660.114 C 753.673 665.398, 753.047 666.769, 753 677.500 C 752.928 694.117, 747.725 726.316, 740.907 752.343 C 739.776 756.656, 739.123 760.456, 739.454 760.787 C 740.066 761.400, 750.177 759.853, 773.500 755.580 C 780.650 754.270, 801.800 750.463, 820.500 747.120 C 862.160 739.673, 868.442 738.463, 869.795 737.627 C 871.019 736.870, 869.298 731.624, 853.024 686.500 C 846.874 669.450, 838.704 646.500, 834.866 635.500 C 824.210 604.952, 823.836 603.992, 822.628 604.110 C 822.008 604.170, 813.625 612.203, 804 621.960 M 408.009 711.250 C 408.025 715.272, 412.887 735.180, 417.181 748.806 L 421.373 762.113 425.437 761.444 C 438.419 759.308, 476.004 747.492, 475.996 745.548 C 475.994 744.972, 470.031 741.481, 462.746 737.792 C 455.461 734.103, 440.555 726.115, 429.621 720.042 C 418.688 713.969, 409.350 709, 408.871 709 C 408.392 709, 408.004 710.013, 408.009 711.250 M 683.450 709.887 C 682.928 710.375, 678 713.167, 672.500 716.092 C 667 719.018, 658.900 723.338, 654.500 725.694 C 650.100 728.050, 640.087 733.204, 632.250 737.147 C 624.413 741.090, 618 744.865, 618 745.536 C 618 746.207, 619.688 747.222, 621.750 747.791 C 623.813 748.360, 629.970 750.463, 635.433 752.464 C 646.518 756.524, 661.395 760.585, 668.754 761.562 L 673.603 762.205 676.790 752.852 C 680.273 742.633, 685.606 721.450, 686.619 713.816 C 687.124 710.010, 686.958 709, 685.829 709 C 685.043 709, 683.972 709.399, 683.450 709.887 M 543.465 781.641 C 530.093 788.752, 512.756 796.943, 503.552 800.500 C 492.221 804.879, 466.646 813.119, 459.500 814.694 C 456.889 815.269, 455.500 816.125, 455.500 817.158 C 455.500 818.974, 545.317 919.500, 546.939 919.500 C 547.327 919.500, 559.302 906.675, 573.552 891 C 587.801 875.325, 605.319 856.173, 612.480 848.440 C 633.600 825.634, 639.210 819.131, 638.808 817.923 C 638.598 817.295, 632.594 815.107, 625.464 813.059 C 601.890 806.289, 576.021 795.853, 554.965 784.619 C 546.640 780.177, 546.356 780.104, 543.465 781.641" stroke="none" fill="#070808" fill-rule="evenodd"/></svg>