<svg width="25" height="25" viewBox="0 0 25 25" fill="none" xmlns="http://www.w3.org/2000/svg">
<path d="M20.3125 3.90625H4.6875C4.2731 3.90625 3.87567 4.07087 3.58265 4.3639C3.28962 4.65692 3.125 5.05435 3.125 5.46875V11.208C3.125 19.959 10.5293 22.8623 12.0117 23.3555C12.3283 23.4631 12.6717 23.4631 12.9883 23.3555C14.4727 22.8623 21.875 19.959 21.875 11.208V5.46875C21.875 5.05435 21.7104 4.65692 21.4174 4.3639C21.1243 4.07087 20.7269 3.90625 20.3125 3.90625ZM20.3125 11.21C20.3125 18.8682 13.833 21.4268 12.5 21.8721C11.1787 21.4316 4.6875 18.875 4.6875 11.21V5.46875H20.3125V11.21Z" fill="url(#paint0_linear_83_76)"/>
<defs>
<linearGradient id="paint0_linear_83_76" x1="3.125" y1="3.90625" x2="22.0039" y2="4.03165" gradientUnits="userSpaceOnUse">
<stop stop-color="#00FDC2"/>
<stop offset="1" stop-color="#00EC85"/>
</linearGradient>
</defs>
</svg>
