<svg width="25" height="25" viewBox="0 0 25 25" fill="none" xmlns="http://www.w3.org/2000/svg">
<path d="M24.0232 12.5002C24.0231 13.5431 23.7137 14.5625 23.1342 15.4296C22.5548 16.2967 21.7312 16.9725 20.7677 17.3716C19.8042 17.7706 18.744 17.8751 17.7212 17.6717C16.6983 17.4682 15.7587 16.9661 15.0212 16.2288C15.0126 16.2208 15.0045 16.2123 14.9968 16.2034L9.13745 9.58813C8.56251 9.01789 7.83163 8.63059 7.03693 8.47505C6.24223 8.31951 5.41926 8.4027 4.67176 8.71412C3.92426 9.02554 3.28567 9.55127 2.83647 10.225C2.38727 10.8988 2.14756 11.6905 2.14756 12.5002C2.14756 13.31 2.38727 14.1017 2.83647 14.7755C3.28567 15.4492 3.92426 15.9749 4.67176 16.2864C5.41926 16.5978 6.24223 16.681 7.03693 16.5254C7.83163 16.3699 8.56251 15.9826 9.13745 15.4124L9.97437 14.468C10.0257 14.4103 10.0878 14.3633 10.1573 14.3296C10.2268 14.2959 10.3022 14.2762 10.3793 14.2717C10.4564 14.2672 10.5336 14.2778 10.6065 14.3032C10.6795 14.3285 10.7467 14.3679 10.8044 14.4192C10.8622 14.4705 10.9092 14.5326 10.9429 14.6021C10.9766 14.6716 10.9962 14.747 11.0008 14.8241C11.0053 14.9012 10.9946 14.9784 10.9693 15.0514C10.944 15.1243 10.9046 15.1916 10.8533 15.2493L10.0046 16.2073C9.99701 16.2162 9.98886 16.2247 9.98023 16.2327C9.24277 16.9703 8.30313 17.4726 7.28016 17.6762C6.25718 17.8797 5.19682 17.7754 4.23316 17.3763C3.2695 16.9772 2.44584 16.3013 1.86635 15.434C1.28685 14.5668 0.977539 13.5472 0.977539 12.5041C0.977539 11.4611 1.28685 10.4415 1.86635 9.57428C2.44584 8.70704 3.2695 8.03113 4.23316 7.63203C5.19682 7.23293 6.25718 7.12856 7.28016 7.33212C8.30313 7.53568 9.24277 8.03803 9.98023 8.77563C9.98886 8.78361 9.99701 8.79209 10.0046 8.80102L15.864 15.4163C16.439 15.9865 17.1698 16.3738 17.9645 16.5293C18.7592 16.6849 19.5822 16.6017 20.3297 16.2903C21.0772 15.9789 21.7158 15.4531 22.165 14.7794C22.6142 14.1056 22.8539 13.3139 22.8539 12.5041C22.8539 11.6944 22.6142 10.9027 22.165 10.2289C21.7158 9.55517 21.0772 9.02945 20.3297 8.71803C19.5822 8.4066 18.7592 8.32342 17.9645 8.47896C17.1698 8.63449 16.439 9.02179 15.864 9.59204L15.0271 10.5364C14.9758 10.5941 14.9136 10.6411 14.8442 10.6748C14.7747 10.7085 14.6993 10.7282 14.6222 10.7327C14.5451 10.7372 14.4679 10.7265 14.3949 10.7012C14.322 10.6759 14.2547 10.6365 14.197 10.5852C14.1393 10.5339 14.0923 10.4717 14.0586 10.4023C14.0249 10.3328 14.0052 10.2574 14.0007 10.1803C13.9962 10.1032 14.0069 10.026 14.0322 9.95303C14.0575 9.88008 14.0969 9.81284 14.1482 9.75513L14.9968 8.79712C15.0045 8.78818 15.0126 8.77971 15.0212 8.77173C15.7587 8.03437 16.6983 7.53224 17.7212 7.32883C18.744 7.12541 19.8042 7.22984 20.7677 7.62892C21.7312 8.02799 22.5548 8.70379 23.1342 9.57086C23.7137 10.4379 24.0231 11.4574 24.0232 12.5002Z" fill="url(#paint0_linear_83_71)"/>
<defs>
<linearGradient id="paint0_linear_83_71" x1="0.977539" y1="7.22754" x2="24.1773" y2="7.57816" gradientUnits="userSpaceOnUse">
<stop stop-color="#00FDC2"/>
<stop offset="1" stop-color="#00EC85"/>
</linearGradient>
</defs>
</svg>
