<svg width="23" height="13" viewBox="0 0 23 13" fill="none" xmlns="http://www.w3.org/2000/svg">
<path d="M3.88 12V2.4H3.848L0.84 5.12L0.2 3.68L3.88 0.32H5.64V12H3.88ZM18.1901 0.32H19.9501L13.3901 12H11.6301L18.1901 0.32ZM17.2461 6.736C17.7368 6.192 18.4248 5.92 19.3101 5.92C20.1955 5.92 20.8835 6.192 21.3741 6.736C21.8648 7.26933 22.1101 8.03733 22.1101 9.04C22.1101 10.0427 21.8648 10.816 21.3741 11.36C20.8835 11.8933 20.1955 12.16 19.3101 12.16C18.4248 12.16 17.7368 11.8933 17.2461 11.36C16.7555 10.816 16.5101 10.0427 16.5101 9.04C16.5101 8.03733 16.7555 7.26933 17.2461 6.736ZM10.2061 0.976C10.6968 0.432 11.3848 0.16 12.2701 0.16C13.1555 0.16 13.8435 0.432 14.3341 0.976C14.8248 1.50933 15.0701 2.27733 15.0701 3.28C15.0701 4.28267 14.8248 5.056 14.3341 5.6C13.8435 6.13333 13.1555 6.4 12.2701 6.4C11.3848 6.4 10.6968 6.13333 10.2061 5.6C9.71546 5.056 9.47013 4.28267 9.47013 3.28C9.47013 2.27733 9.71546 1.50933 10.2061 0.976ZM18.1901 9.04C18.1901 10.2667 18.5635 10.88 19.3101 10.88C20.0568 10.88 20.4301 10.2667 20.4301 9.04C20.4301 7.81333 20.0568 7.2 19.3101 7.2C18.5635 7.2 18.1901 7.81333 18.1901 9.04ZM11.1501 3.28C11.1501 4.50667 11.5235 5.12 12.2701 5.12C13.0168 5.12 13.3901 4.50667 13.3901 3.28C13.3901 2.05333 13.0168 1.44 12.2701 1.44C11.5235 1.44 11.1501 2.05333 11.1501 3.28Z" fill="url(#paint0_linear_83_75)"/>
<defs>
<linearGradient id="paint0_linear_83_75" x1="-1" y1="-7" x2="24.1718" y2="-6.82585" gradientUnits="userSpaceOnUse">
<stop stop-color="#00FDC2"/>
<stop offset="1" stop-color="#00EC85"/>
</linearGradient>
</defs>
</svg>
