<svg width="25" height="25" viewBox="0 0 25 25" fill="none" xmlns="http://www.w3.org/2000/svg">
<path d="M20.2207 7.87797C19.208 6.86298 18.0044 6.05851 16.6793 5.51093C15.3542 4.96336 13.9338 4.68351 12.5 4.68754H12.4609C6.45215 4.70805 1.5625 9.66801 1.5625 15.7354V17.9688C1.5625 18.3832 1.72712 18.7806 2.02015 19.0736C2.31317 19.3667 2.7106 19.5313 3.125 19.5313H21.875C22.2894 19.5313 22.6868 19.3667 22.9799 19.0736C23.2729 18.7806 23.4375 18.3832 23.4375 17.9688V15.625C23.4415 14.185 23.1592 12.7585 22.6069 11.4285C22.0547 10.0986 21.2436 8.89164 20.2207 7.87797ZM21.875 17.9688H11.6904L17.0381 10.6153C17.1601 10.4477 17.2105 10.2385 17.1783 10.0338C17.146 9.82903 17.0338 9.64547 16.8662 9.52348C16.6986 9.40149 16.4895 9.35107 16.2847 9.3833C16.08 9.41553 15.8964 9.52778 15.7744 9.69536L9.75781 17.9688H3.125V15.7354C3.125 15.4346 3.13965 15.1377 3.16699 14.8438H5.46875C5.67595 14.8438 5.87466 14.7615 6.02118 14.615C6.16769 14.4685 6.25 14.2697 6.25 14.0625C6.25 13.8553 6.16769 13.6566 6.02118 13.5101C5.87466 13.3636 5.67595 13.2813 5.46875 13.2813H3.44434C4.45215 9.48637 7.74121 6.61723 11.7188 6.28325V8.59379C11.7188 8.80099 11.8011 8.99971 11.9476 9.14622C12.0941 9.29273 12.2928 9.37504 12.5 9.37504C12.7072 9.37504 12.9059 9.29273 13.0524 9.14622C13.1989 8.99971 13.2812 8.80099 13.2812 8.59379V6.28227C15.2194 6.44538 17.059 7.20639 18.546 8.46016C20.033 9.71393 21.0938 11.3986 21.582 13.2813H19.5312C19.324 13.2813 19.1253 13.3636 18.9788 13.5101C18.8323 13.6566 18.75 13.8553 18.75 14.0625C18.75 14.2697 18.8323 14.4685 18.9788 14.615C19.1253 14.7615 19.324 14.8438 19.5312 14.8438H21.8428C21.8633 15.1026 21.875 15.3623 21.875 15.625V17.9688Z" fill="url(#paint0_linear_83_80)"/>
<defs>
<linearGradient id="paint0_linear_83_80" x1="1.5625" y1="4.6875" x2="23.5866" y2="4.91205" gradientUnits="userSpaceOnUse">
<stop stop-color="#00FDC2"/>
<stop offset="1" stop-color="#00EC85"/>
</linearGradient>
</defs>
</svg>
