<svg width="25" height="25" viewBox="0 0 25 25" fill="none" xmlns="http://www.w3.org/2000/svg">
<path d="M10.1336 18.158C10.0955 18.3093 9.14333 21.8748 3.90603 21.8748C3.69883 21.8748 3.50011 21.7924 3.3536 21.6459C3.20709 21.4994 3.12478 21.3007 3.12478 21.0935C3.12478 15.8562 6.69021 14.904 6.84157 14.866C7.04269 14.8157 7.25552 14.8474 7.43326 14.9541C7.611 15.0608 7.73908 15.2337 7.78933 15.4348C7.83957 15.6359 7.80787 15.8488 7.70119 16.0265C7.59451 16.2042 7.42159 16.3323 7.22048 16.3826C7.13259 16.407 5.03103 17.0212 4.72439 20.2751C7.97829 19.9685 8.59353 17.8708 8.61892 17.7732C8.67072 17.5723 8.80018 17.4003 8.97884 17.2949C9.15749 17.1895 9.3707 17.1594 9.57155 17.2112C9.77241 17.263 9.94446 17.3924 10.0499 17.5711C10.1553 17.7498 10.1854 17.963 10.1336 18.1638V18.158ZM19.2156 11.5759L18.7498 12.0417V17.738C18.7509 17.944 18.7111 18.1482 18.6327 18.3386C18.5542 18.5291 18.4387 18.702 18.2927 18.8474L14.9412 22.197C14.7966 22.3426 14.6247 22.4581 14.4353 22.5369C14.2459 22.6156 14.0428 22.6561 13.8377 22.656C13.6684 22.656 13.5002 22.6286 13.3396 22.5749C13.0639 22.4838 12.8192 22.3173 12.6332 22.0943C12.4472 21.8713 12.3272 21.6008 12.2869 21.3132L11.7625 17.5544L7.44509 13.2371L3.68825 12.7126C3.40031 12.6723 3.12934 12.5523 2.90584 12.3663C2.68233 12.1804 2.51516 11.9357 2.42312 11.6599C2.33108 11.3841 2.31783 11.088 2.38485 10.8051C2.45188 10.5222 2.59652 10.2636 2.80251 10.0583L6.15212 6.70678C6.29751 6.56087 6.47046 6.44532 6.66091 6.36686C6.85136 6.2884 7.05552 6.24859 7.2615 6.24975H12.9578L13.4236 5.78393C16.0291 3.17944 19.1687 3.06713 20.3972 3.14038C20.7782 3.16352 21.1375 3.32529 21.4073 3.59514C21.6772 3.865 21.8389 4.22429 21.8621 4.60522C21.9334 5.83081 21.8211 8.97045 19.2166 11.5759H19.2156ZM3.90603 11.1658L7.53396 11.6716L11.3953 7.81225H7.2615L3.90603 11.1658ZM8.91774 12.4998L12.4998 16.0818L18.1101 10.4714C18.8662 9.72045 19.4528 8.81633 19.8304 7.81983C20.2081 6.82333 20.368 5.75754 20.2996 4.69409C19.2367 4.62817 18.172 4.78982 17.1765 5.16823C16.1811 5.54663 15.2778 6.13309 14.5271 6.88842L8.91774 12.4998ZM17.1873 13.6042L13.3269 17.4646L13.8347 21.0935L17.1873 17.738V13.6042Z" fill="url(#paint0_linear_83_78)"/>
<defs>
<linearGradient id="paint0_linear_83_78" x1="2.34277" y1="3.12598" x2="22.0101" y2="3.26207" gradientUnits="userSpaceOnUse">
<stop stop-color="#00FDC2"/>
<stop offset="1" stop-color="#00EC85"/>
</linearGradient>
</defs>
</svg>
